<svg width="24" height="25" fill="none" xmlns="http://www.w3.org/2000/svg"><mask id="a" style="mask-type:alpha" maskUnits="userSpaceOnUse" x="0" y="0" width="24" height="25"><path fill="#D9D9D9" d="M0 .226h24v24H0z"/></mask><g mask="url(#a)"><path d="M12 12.226c.55 0 1.02-.196 1.412-.588.392-.391.588-.862.588-1.412 0-.55-.196-1.02-.588-1.413A1.926 1.926 0 0012 8.226c-.55 0-1.02.196-1.412.587A1.926 1.926 0 0010 10.226c0 .55.196 1.02.588 1.412.391.392.862.588 1.412.588zm0 7.35c2.033-1.867 3.542-3.563 4.525-5.088C17.508 12.965 18 11.61 18 10.427c0-1.817-.58-3.304-1.738-4.463C15.104 4.805 13.683 4.226 12 4.226c-1.683 0-3.104.58-4.263 1.737C6.58 7.122 6 8.61 6 10.426c0 1.183.492 2.537 1.475 4.063.983 1.524 2.492 3.22 4.525 5.087zm0 2.65c-2.683-2.283-4.688-4.404-6.013-6.362C4.662 13.905 4 12.093 4 10.425c0-2.5.804-4.492 2.412-5.975C8.021 2.968 9.883 2.226 12 2.226s3.98.742 5.587 2.225C19.197 5.934 20 7.926 20 10.426c0 1.667-.663 3.48-1.988 5.438-1.325 1.958-3.329 4.079-6.012 6.362z" fill="#D43B2C"/></g></svg>