<?xml version="1.0" encoding="utf-8"?><svg viewBox="0 0 36 37" xmlns="http://www.w3.org/2000/svg" xmlns:xlink="http://www.w3.org/1999/xlink"><style>:root>svg{display:none}:root>svg:target{display:block}</style><svg fill="none" viewBox="0 0 24 24" id="icon-accordeon-blue" xmlns="http://www.w3.org/2000/svg"><path d="M13.601 12l-4.6-4.6 1.4-1.4 6 6-6 6-1.4-1.4 4.6-4.6z" fill="#004F9F"/></svg><svg fill="none" viewBox="0 0 24 24" id="icon-accordeon-white" xmlns="http://www.w3.org/2000/svg"><path d="M13.601 12l-4.6-4.6 1.4-1.4 6 6-6 6-1.4-1.4 4.6-4.6z" fill="#fff"/></svg><svg fill="none" viewBox="0 0 24 24" id="icon-arrow-breadcrumb" xmlns="http://www.w3.org/2000/svg"><path d="M12.6 12L8 7.4 9.4 6l6 6-6 6L8 16.6l4.6-4.6z" fill="#D43B2C"/></svg><svg fill="none" viewBox="0 0 36 37" id="icon-tg" xmlns="http://www.w3.org/2000/svg"><rect y=".891" width="36" height="36" rx="8" fill="#2AABED"/><path fill-rule="evenodd" clip-rule="evenodd" d="M8.375 18.61c5.369-2.34 8.949-3.881 10.74-4.626 5.114-2.128 6.177-2.497 6.87-2.51.152-.002.493.036.713.215.186.15.238.355.262.498.025.144.055.47.031.726-.277 2.912-1.476 9.978-2.086 13.24-.259 1.38-.767 1.843-1.259 1.888-1.07.098-1.881-.707-2.917-1.386-1.621-1.062-2.537-1.724-4.11-2.76-1.819-1.199-.64-1.857.396-2.934.272-.281 4.984-4.567 5.075-4.956.011-.049.022-.23-.086-.326-.108-.095-.266-.063-.381-.037-.163.037-2.752 1.749-7.768 5.135-.735.505-1.4.75-1.997.738-.658-.015-1.923-.372-2.863-.678-1.153-.375-2.07-.573-1.99-1.21.041-.331.498-.67 1.37-1.017z" fill="#fff"/></svg><svg fill="none" viewBox="0 0 36 37" id="icon-vk" xmlns="http://www.w3.org/2000/svg"><rect y=".891" width="36" height="36" rx="8" fill="#07F"/><path d="M18.44 25.384c-6.533 0-10.258-4.47-10.414-11.91h3.272c.108 5.46 2.52 7.774 4.43 8.25v-8.25h3.082v4.71c1.886-.203 3.869-2.349 4.537-4.71h3.081c-.513 2.91-2.663 5.055-4.191 5.938 1.528.715 3.977 2.587 4.908 5.973h-3.392c-.728-2.266-2.543-4.018-4.943-4.257v4.256h-.37z" fill="#fff"/></svg></svg>